<svg xmlns="http://www.w3.org/2000/svg" version="1.1" xmlns:xlink="http://www.w3.org/1999/xlink" xmlns:svgjs="http://svgjs.dev/svgjs" width="1000" height="623" viewBox="0 0 1000 623"><g transform="matrix(1,0,0,1,-0.6060606060606233,0.2522267206477409)"><svg viewBox="0 0 396 247" data-background-color="#ffffff" preserveAspectRatio="xMidYMid meet" height="623" width="1000" xmlns="http://www.w3.org/2000/svg" xmlns:xlink="http://www.w3.org/1999/xlink"><g id="tight-bounds" transform="matrix(1,0,0,1,0.2400000000000091,-0.09999999999999432)"><svg viewBox="0 0 395.52 247.2" height="247.2" width="395.52"><g><svg></svg></g><g><svg viewBox="0 0 395.52 247.2" height="247.2" width="395.52"><g transform="matrix(1,0,0,1,86.18116442641286,47.215199999999996)"><svg viewBox="0 0 223.15767114717426 152.7696" height="152.7696" width="223.15767114717426"><g><svg viewBox="0 0 223.15767114717426 152.7696" height="152.7696" width="223.15767114717426"><g><svg viewBox="0 0 223.15767114717426 152.7696" height="152.7696" width="223.15767114717426"><g><svg viewBox="0 0 223.15767114717426 152.7696" height="152.7696" width="223.15767114717426"><g><svg viewBox="0 0 223.15767114717426 152.7696" height="152.7696" width="223.15767114717426"><g><svg viewBox="0 0 223.15767114717426 152.7696" height="152.7696" width="223.15767114717426"><g transform="matrix(1,0,0,1,0,0)"><svg width="223.15767114717426" viewBox="55.31999969482422 -37.0099983215332 150.489990234375 89.12999725341797" height="152.7696" data-palette-color="#222831"><svg></svg><svg></svg><g class="undefined-text-0" data-fill-palette-color="primary" id="text-0"><path xmlns="http://www.w3.org/2000/svg" d="M76.46 0v-6.69h3.69l-1.66-5.32h-11.38l-1.66 5.32h3.91v6.69h-14.04v-6.69h2.76l10.08-30.32h9.79l9.86 30.32h2.69v6.69zM72.75-30.3l-3.71 12.04h7.47zM115.96-25.24v9.15h-6.86v-2.61c-0.667 0-1.277 0.043-1.83 0.13-0.553 0.093-1.037 0.243-1.45 0.45-0.413 0.213-0.763 0.507-1.05 0.88-0.287 0.38-0.487 0.847-0.6 1.4v0 9.15h5.15v6.69h-16.5v-6.69h3.78v-11.91h-3.73v-6.69h11.25v1.78c0.72-0.573 1.527-1.013 2.42-1.32 0.893-0.307 1.87-0.46 2.93-0.46v0c1.073 0 2.18 0.007 3.32 0.02 1.14 0.02 2.197 0.03 3.17 0.03zM143.06-25.24v9.15h-6.86v-2.61c-0.667 0-1.277 0.043-1.83 0.13-0.553 0.093-1.037 0.243-1.45 0.45-0.413 0.213-0.763 0.507-1.05 0.88-0.287 0.38-0.487 0.847-0.6 1.4v0 9.15h5.15v6.69h-16.5v-6.69h3.78v-11.91h-3.73v-6.69h11.25v1.78c0.72-0.573 1.527-1.013 2.42-1.32 0.893-0.307 1.87-0.46 2.93-0.46v0c1.073 0 2.18 0.007 3.32 0.02 1.14 0.02 2.197 0.03 3.17 0.03zM162.77 0v-1.37c-0.573 0.36-1.097 0.667-1.57 0.92-0.473 0.253-0.943 0.457-1.41 0.61-0.473 0.153-0.963 0.267-1.47 0.34-0.5 0.073-1.053 0.11-1.66 0.11v0c-1.513 0-2.867-0.207-4.06-0.62-1.2-0.413-2.21-0.983-3.03-1.71-0.82-0.727-1.45-1.58-1.89-2.56-0.44-0.987-0.66-2.06-0.66-3.22v0c0-1.167 0.223-2.247 0.67-3.24 0.447-0.993 1.093-1.843 1.94-2.55 0.847-0.713 1.883-1.267 3.11-1.66 1.233-0.4 2.637-0.6 4.21-0.6v0c1.16 0 2.217 0.06 3.17 0.18 0.947 0.12 1.83 0.27 2.65 0.45v0-0.78c0-0.633-0.123-1.183-0.37-1.65-0.247-0.46-0.59-0.84-1.03-1.14-0.44-0.307-0.967-0.527-1.58-0.66-0.62-0.14-1.297-0.21-2.03-0.21v0c-1.527 0-2.873 0.15-4.04 0.45-1.167 0.3-2.287 0.737-3.36 1.31v0l-2.34-4.74c1.66-1.14 3.397-2.01 5.21-2.61 1.813-0.6 3.74-0.9 5.78-0.9v0c1.573 0 3.033 0.173 4.38 0.52 1.34 0.353 2.49 0.923 3.45 1.71 0.96 0.787 1.713 1.817 2.26 3.09 0.547 1.267 0.82 2.813 0.82 4.64v0 9.2h3.39v6.69zM157.2-5.15v0c1.153 0 2.203-0.187 3.15-0.56 0.94-0.373 1.747-0.83 2.42-1.37v0-3.22h-5.86c-0.38 0-0.747 0.057-1.1 0.17-0.36 0.113-0.683 0.277-0.97 0.49-0.28 0.207-0.507 0.467-0.68 0.78-0.173 0.307-0.26 0.663-0.26 1.07v0c0 0.747 0.273 1.373 0.82 1.88 0.547 0.507 1.373 0.76 2.48 0.76zM177.76-18.6v-6.69h12.4v6.69h-1.96l3.64 9.47 3.74-9.47h-2.17v-6.69h12.4v6.69h-2.76l-9.79 23.41h4.34v6.69h-15.69v-6.69h4.42l1.9-4.81-7.91-18.6z" fill="#222831" fill-rule="nonzero" stroke="none" stroke-width="1" stroke-linecap="butt" stroke-linejoin="miter" stroke-miterlimit="10" stroke-dasharray="" stroke-dashoffset="0" font-family="none" font-weight="none" font-size="none" text-anchor="none" style="mix-blend-mode: normal" data-fill-palette-color="primary" opacity="1"></path><path xmlns="http://www.w3.org/2000/svg" d="M67.71 21.21v-6.71h15.84v6.71h-3.9v23.61h8.05c0.213 0 0.423-0.06 0.63-0.18 0.2-0.127 0.377-0.287 0.53-0.48 0.16-0.193 0.287-0.403 0.38-0.63 0.1-0.233 0.15-0.453 0.15-0.66v0-4.96h7.91v13.6h-29.59v-6.69h3.83v-23.61zM115.32 51.51v-1.37c-0.573 0.36-1.097 0.667-1.57 0.92-0.467 0.253-0.937 0.457-1.41 0.61-0.473 0.153-0.963 0.267-1.47 0.34-0.5 0.073-1.053 0.11-1.66 0.11v0c-1.513 0-2.867-0.207-4.06-0.62-1.2-0.413-2.21-0.983-3.03-1.71-0.82-0.727-1.45-1.58-1.89-2.56-0.44-0.987-0.66-2.06-0.66-3.22v0c0-1.167 0.223-2.247 0.67-3.24 0.447-0.993 1.093-1.843 1.94-2.55 0.847-0.713 1.883-1.267 3.11-1.66 1.233-0.4 2.64-0.6 4.22-0.6v0c1.153 0 2.207 0.06 3.16 0.18 0.953 0.12 1.837 0.27 2.65 0.45v0-0.78c0-0.633-0.123-1.183-0.37-1.65-0.247-0.46-0.59-0.84-1.03-1.14-0.433-0.307-0.96-0.527-1.58-0.66-0.62-0.14-1.297-0.21-2.03-0.21v0c-1.527 0-2.873 0.15-4.04 0.45-1.16 0.3-2.28 0.737-3.36 1.31v0l-2.34-4.74c1.66-1.14 3.397-2.01 5.21-2.61 1.813-0.6 3.74-0.9 5.78-0.9v0c1.573 0 3.033 0.173 4.38 0.52 1.34 0.353 2.49 0.923 3.45 1.71 0.96 0.787 1.713 1.817 2.26 3.09 0.547 1.267 0.82 2.813 0.82 4.64v0 9.2h3.39v6.69zM109.75 46.36v0c1.153 0 2.203-0.187 3.15-0.56 0.947-0.373 1.753-0.83 2.42-1.37v0-3.22h-5.86c-0.373 0-0.74 0.057-1.1 0.17-0.36 0.113-0.683 0.277-0.97 0.49-0.28 0.207-0.507 0.467-0.68 0.78-0.173 0.307-0.26 0.663-0.26 1.07v0c0 0.747 0.273 1.373 0.82 1.88 0.547 0.507 1.373 0.76 2.48 0.76zM151.82 51.51v-14.55c0-1.413-0.377-2.523-1.13-3.33-0.747-0.807-1.74-1.21-2.98-1.21v0c-0.847 0-1.7 0.187-2.56 0.56-0.86 0.373-1.697 1.073-2.51 2.1v0 9.74h4.1v6.69h-15.73v-6.69h3.72v-11.91h-3.67v-6.69h11.53v2.22c1.053-0.833 2.237-1.49 3.55-1.97 1.307-0.48 2.687-0.72 4.14-0.72v0c3.04 0 5.383 0.85 7.03 2.55 1.64 1.707 2.46 4.193 2.46 7.46v0 9.06h3.59v6.69zM181.62 20.21v-6.69h11.06v31.3h4.94v6.69h-12.46v-0.98c-0.873 0.46-1.77 0.82-2.69 1.08-0.92 0.26-1.853 0.39-2.8 0.39v0c-1.933 0-3.71-0.347-5.33-1.04-1.62-0.693-3.013-1.64-4.18-2.84-1.16-1.207-2.067-2.62-2.72-4.24-0.653-1.62-0.98-3.357-0.98-5.21v0c0-1.86 0.323-3.59 0.97-5.19 0.64-1.6 1.533-2.997 2.68-4.19 1.147-1.187 2.523-2.12 4.13-2.8 1.6-0.687 3.363-1.03 5.29-1.03v0c1.053 0 2.043 0.103 2.97 0.31 0.933 0.2 1.82 0.487 2.66 0.86v0-6.42zM180.09 45.26v0c1.073-0.033 2.043-0.31 2.91-0.83 0.873-0.52 1.593-1.203 2.16-2.05v0-7.45c-0.567-0.86-1.3-1.53-2.2-2.01-0.907-0.48-1.863-0.713-2.87-0.7v0c-0.847-0.013-1.64 0.133-2.38 0.44-0.74 0.313-1.393 0.753-1.96 1.32-0.56 0.573-1.003 1.257-1.33 2.05-0.327 0.8-0.49 1.703-0.49 2.71v0c0 0.993 0.163 1.893 0.49 2.7 0.327 0.807 0.77 1.49 1.33 2.05 0.567 0.56 1.22 0.987 1.96 1.28 0.74 0.293 1.533 0.457 2.38 0.49z" fill="#a17a74" fill-rule="nonzero" stroke="none" stroke-width="1" stroke-linecap="butt" stroke-linejoin="miter" stroke-miterlimit="10" stroke-dasharray="" stroke-dashoffset="0" font-family="none" font-weight="none" font-size="none" text-anchor="none" style="mix-blend-mode: normal" data-fill-palette-color="secondary" opacity="1"></path></g></svg></g></svg></g></svg></g></svg></g></svg></g></svg></g></svg></g><path d="M261.193 41.215L261.193 0 13.993 0 13.993 247.2 261.193 247.2 261.193 205.985 254.706 205.985 254.706 240.713 20.48 240.713 20.48 6.487 254.706 6.487 254.706 41.215Z" fill="#222831" stroke="transparent" data-fill-palette-color="primary"></path></svg></g><defs></defs></svg><rect width="395.52" height="247.2" fill="none" stroke="none" visibility="hidden"></rect></g></svg></g></svg>